HIERARCHY
ROOT Hips
{
	OFFSET 0.000000 0.000000 0.000000
	CHANNELS 6 Xposition Yposition Zposition Xrotation Yrotation Zrotation
	JOINT LeftUpLeg_virtual
	{
		OFFSET 0.000000 0.000000 0.000000
		CHANNELS 3 Xrotation Yrotation Zrotation
		JOINT LeftUpLeg
		{
			OFFSET 13.026900 -6.336304 -1.092800
			CHANNELS 3 Xrotation Yrotation Zrotation
			JOINT LeftLeg
			{
				OFFSET 0.524474 -46.096886 9.782700
				CHANNELS 3 Xrotation Yrotation Zrotation
				JOINT LeftFoot
				{
					OFFSET -0.524474 -53.427422 -12.948200
					CHANNELS 3 Xrotation Yrotation Zrotation
					JOINT LeftToeBase
					{
						OFFSET 0.192200 -14.009700 16.364100
						CHANNELS 3 Xrotation Yrotation Zrotation
						JOINT LeftToe_End
						{
							OFFSET -1.784700 -0.561700 9.474800
							CHANNELS 3 Xrotation Yrotation Zrotation
							End Site
							{
								OFFSET 0 0 0
							}
						}
					}
				}
			}
		}
	}
	JOINT RightUpLeg_virtual
	{
		OFFSET 0.000000 0.000000 0.000000
		CHANNELS 3 Xrotation Yrotation Zrotation
		JOINT RightUpLeg
		{
			OFFSET -12.883000 -6.336304 -1.092800
			CHANNELS 3 Xrotation Yrotation Zrotation
			JOINT RightLeg
			{
				OFFSET -0.524587 -46.096825 9.782800
				CHANNELS 3 Xrotation Yrotation Zrotation
				JOINT RightFoot
				{
					OFFSET 0.524587 -53.427383 -12.948300
					CHANNELS 3 Xrotation Yrotation Zrotation
					JOINT RightToeBase
					{
						OFFSET -0.192200 -14.009700 16.364100
						CHANNELS 3 Xrotation Yrotation Zrotation
						JOINT RightToe_End
						{
							OFFSET 1.784700 -0.561700 9.474800
							CHANNELS 3 Xrotation Yrotation Zrotation
							End Site
							{
								OFFSET 0 0 0
							}
						}
					}
				}
			}
		}
	}
	JOINT Spine_virtual
	{
		OFFSET 0.000000 0.000000 0.000000
		CHANNELS 3 Xrotation Yrotation Zrotation
		JOINT Spine
		{
			OFFSET 0.072000 7.257294 -0.789700
			CHANNELS 3 Xrotation Yrotation Zrotation
			JOINT Spine1
			{
				OFFSET 0.000000 12.508769 -0.658067
				CHANNELS 3 Xrotation Yrotation Zrotation
				JOINT Spine1_split
				{
					OFFSET 0.000000 12.508769 -0.658067
					CHANNELS 3 Xrotation Yrotation Zrotation
					JOINT Spine2
					{
						OFFSET 0.000000 12.508769 -0.658067
						CHANNELS 3 Xrotation Yrotation Zrotation
						JOINT Neck_virtual
						{
							OFFSET 0.000000 0.000000 0.000000
							CHANNELS 3 Xrotation Yrotation Zrotation
							JOINT Neck
							{
								OFFSET 0.000000 14.033295 7.520400
								CHANNELS 3 Xrotation Yrotation Zrotation
								JOINT Head
								{
									OFFSET 0.000000 8.198502 5.703100
									CHANNELS 3 Xrotation Yrotation Zrotation
									JOINT HeadTop_End
									{
										OFFSET 0.000000 17.760803 13.332701
										CHANNELS 3 Xrotation Yrotation Zrotation
										End Site
										{
											OFFSET 0 0 0
										}
									}
								}
							}
						}
						JOINT LeftShoulder_virtual
						{
							OFFSET 0.000000 0.000000 0.000000
							CHANNELS 3 Xrotation Yrotation Zrotation
							JOINT LeftShoulder
							{
								OFFSET 6.292450 5.785301 -0.669000
								CHANNELS 3 Xrotation Yrotation Zrotation
								JOINT LeftShoulder_split
								{
									OFFSET 6.292450 5.785301 -0.669000
									CHANNELS 3 Xrotation Yrotation Zrotation
									JOINT LeftArm
									{
										OFFSET 13.907140 -6.093903 1.965100
										CHANNELS 3 Xrotation Yrotation Zrotation
										JOINT LeftForeArm
										{
											OFFSET 34.140198 0.000000 0.000000
											CHANNELS 3 Xrotation Yrotation Zrotation
											JOINT LeftHand
											{
												OFFSET 40.960209 0.000000 0.000000
												CHANNELS 3 Xrotation Yrotation Zrotation
												End Site
												{
													OFFSET 0 0 0
												}
											}
										}
									}
								}
							}
						}
						JOINT RightShoulder_virtual
						{
							OFFSET 0.000000 0.000000 0.000000
							CHANNELS 3 Xrotation Yrotation Zrotation
							JOINT RightShoulder
							{
								OFFSET -6.292450 5.785301 -0.669000
								CHANNELS 3 Xrotation Yrotation Zrotation
								JOINT RightShoulder_split
								{
									OFFSET -6.292450 5.785301 -0.669000
									CHANNELS 3 Xrotation Yrotation Zrotation
									JOINT RightArm
									{
										OFFSET -13.907140 -6.093903 1.965100
										CHANNELS 3 Xrotation Yrotation Zrotation
										JOINT RightForeArm
										{
											OFFSET -34.140198 0.000000 0.000000
											CHANNELS 3 Xrotation Yrotation Zrotation
											JOINT RightHand
											{
												OFFSET -40.960209 0.000000 0.000000
												CHANNELS 3 Xrotation Yrotation Zrotation
												End Site
												{
													OFFSET 0 0 0
												}
											}
										}
									}
								}
							}
						}
					}
				}
			}
		}
	}
}
MOTION
Frames: 10
Frame Time: 0.03333333
-0.667246 88.111366 -12.187214 0.000000 0.000000 0.000000 22.038671 -33.314046 8.481326 -82.405624 0.920705 6.616607 57.780047 -2.726646 9.197212 11.605086 -4.164103 -25.969590 -1.390116 0.363595 -2.284833 0.000000 0.000000 0.000000 22.988308 -32.079298 7.628123 -34.317264 -16.467050 -13.581055 51.405807 11.404463 -5.091193 -32.488307 -18.670991 14.878420 -0.463706 6.795129 0.653441 0.000000 0.000000 0.000000 28.043290 -26.775943 5.211891 -1.923752 -0.020840 -0.570686 11.643461 1.635525 1.367575 0.104457 -0.730487 0.369768 0.000000 0.000000 0.000000 13.176237 5.631824 1.876739 -9.444926 30.876789 16.529732 -7.027695 -50.336312 -46.917751 0.000000 0.000000 0.000000 15.614762 1.240356 1.320083 -1.007218 -11.034235 -9.553409 -18.838130 5.727554 0.468506 -52.984670 -39.404755 -42.728342 106.423110 -79.488369 104.290124 0.000000 0.000000 0.000000 13.243131 2.778698 0.233524 -18.259896 -5.199191 -2.288090 -41.114361 -14.031132 3.123626 -73.534725 64.549775 83.815778 -33.299194 49.000211 68.448973 0.000000 0.000000 0.000000 
-0.659395 88.692703 -17.814518 0.000000 0.000000 0.000000 21.586471 -30.691213 7.210708 -80.650314 2.004283 6.721687 62.216398 -4.415045 10.054962 10.426728 -5.577168 -29.634456 -3.740130 -0.060777 -1.003521 0.000000 0.000000 0.000000 20.984534 -34.383647 7.007305 -35.911007 -18.258188 -13.223178 52.385932 12.090254 -5.407493 -33.705457 -17.720518 14.050807 3.495383 7.292497 -0.524079 0.000000 0.000000 0.000000 29.025493 -25.485633 5.548585 -1.943947 -0.019309 -0.299601 11.492125 1.554600 1.136737 0.136602 -1.027054 0.388808 0.000000 0.000000 0.000000 12.961733 5.535149 1.842445 -9.306224 31.264542 16.423024 -6.425803 -50.127376 -46.065460 0.000000 0.000000 0.000000 15.531276 1.086015 1.161217 -1.070936 -11.083189 -9.587307 -18.733175 5.344952 0.473662 -52.560242 -39.949582 -42.414730 104.251711 -79.648407 101.833073 0.000000 0.000000 0.000000 13.223680 2.733710 0.336060 -18.311930 -5.273014 -2.350996 -41.758977 -14.624415 3.478560 -73.138998 65.180850 83.960497 -31.864236 48.355000 67.225461 0.000000 0.000000 0.000000 
-1.349689 89.795959 -25.195896 0.000000 0.000000 0.000000 21.692334 -28.828753 6.589352 -77.297224 3.470154 5.895757 65.569263 -5.705972 9.964530 7.320148 -5.221835 -29.963087 -5.933787 -0.419511 -0.067129 0.000000 0.000000 0.000000 19.445596 -36.567822 6.817487 -39.132107 -19.737418 -13.562708 54.932411 14.528997 -6.248667 -30.524430 -16.097451 18.930405 1.485109 7.858784 -3.489600 0.000000 0.000000 0.000000 29.325127 -23.805458 5.505350 -1.442757 0.078041 -0.155159 11.334901 1.510896 0.813242 0.130967 -1.182900 0.344390 0.000000 0.000000 0.000000 12.631167 5.366741 1.741677 -8.877641 31.440539 16.412817 -6.409938 -50.691383 -44.605582 0.000000 0.000000 0.000000 15.285777 0.960315 1.123822 -1.081516 -10.890125 -9.684313 -18.351909 4.638428 0.835371 -52.957356 -40.473225 -42.160815 103.528708 -79.456950 100.430856 0.000000 0.000000 0.000000 13.131640 2.602567 0.326404 -18.396638 -4.756037 -2.285072 -42.246281 -15.590784 3.595070 -72.950949 65.733119 84.531603 -30.462606 48.027889 65.964458 0.000000 0.000000 0.000000 
-2.580035 90.909142 -33.116955 0.000000 0.000000 0.000000 22.188669 -28.758214 6.723517 -72.839214 4.119025 4.441481 66.568144 -6.106291 8.542953 2.683284 -2.812134 -26.013600 -5.717903 -0.520034 -0.329986 0.000000 0.000000 0.000000 18.775353 -36.911927 6.792808 -41.720646 -20.272881 -14.073326 58.187618 17.471122 -7.466141 -26.399376 -14.367009 25.734640 -2.741961 8.560968 -7.056290 0.000000 0.000000 0.000000 29.108514 -22.449683 5.089556 -0.443859 0.216910 -0.236557 11.174767 1.503499 0.528217 0.091828 -1.086689 0.291776 0.000000 0.000000 0.000000 12.223534 5.190238 1.607855 -8.306691 31.442936 16.576633 -7.128432 -52.003728 -42.926735 0.000000 0.000000 0.000000 14.973687 0.852752 1.238062 -1.019538 -10.524352 -9.823107 -17.748786 3.854524 1.385873 -54.126391 -41.050660 -41.926146 104.389927 -79.059235 100.342289 0.000000 0.000000 0.000000 12.937371 2.420963 0.215595 -18.512668 -3.676281 -2.227613 -42.340790 -16.463575 3.483989 -73.072997 66.044610 85.264940 -29.683039 48.308470 65.272812 0.000000 0.000000 0.000000 
-4.148078 91.329002 -41.221325 0.000000 0.000000 0.000000 22.639225 -30.276815 7.220575 -68.378376 3.135095 3.301668 65.420993 -5.745483 6.045921 -2.508671 0.583373 -18.998545 -2.884541 -0.334868 -1.965381 0.000000 0.000000 0.000000 18.906001 -35.301464 6.602305 -41.055284 -19.906831 -13.866031 60.668021 18.761901 -8.214122 -24.599722 -14.742931 28.456397 -3.063881 8.840150 -10.061855 0.000000 0.000000 0.000000 28.362244 -21.999339 4.340498 0.858591 0.409607 -0.451456 11.015801 1.495814 0.393104 0.081826 -0.868687 0.245485 0.000000 0.000000 0.000000 11.831191 5.035291 1.494315 -7.633926 31.434214 16.901725 -8.854106 -53.729898 -41.624477 0.000000 0.000000 0.000000 14.739446 0.748656 1.458939 -0.863360 -10.045925 -9.967311 -17.374644 3.340672 1.816999 -55.809933 -41.899973 -41.761272 105.695251 -78.654013 100.552037 0.000000 0.000000 0.000000 12.685733 2.212730 0.041810 -18.624794 -2.249819 -2.190186 -41.947846 -17.375214 3.392380 -73.086077 66.204395 85.733498 -29.863646 49.282561 65.525591 0.000000 0.000000 0.000000 
-5.530729 90.678230 -48.816471 0.000000 0.000000 0.000000 22.526934 -32.152306 7.409685 -65.580785 0.205915 3.314773 63.278130 -5.408283 3.335553 -6.273189 3.314634 -11.757921 0.201626 -0.005069 -3.974571 0.000000 0.000000 0.000000 19.405812 -32.934175 6.131494 -36.974686 -18.933938 -13.314729 61.186125 17.747652 -7.777848 -25.137724 -18.523934 26.076482 1.476650 8.256573 -11.665150 0.000000 0.000000 0.000000 27.279402 -22.376079 3.427707 2.187802 0.642626 -0.700401 10.868673 1.452516 0.432699 0.107020 -0.594150 0.215386 0.000000 0.000000 0.000000 11.501114 4.930752 1.440609 -6.855230 31.574960 17.306497 -11.617286 -55.631225 -41.146282 0.000000 0.000000 0.000000 14.659886 0.617885 1.711333 -0.620389 -9.582446 -10.052444 -17.510500 3.015560 1.923705 -57.441481 -43.143669 -41.595866 105.295234 -78.469318 99.074879 0.000000 0.000000 0.000000 12.389553 2.010204 -0.120530 -18.675916 -0.688620 -2.161801 -41.429817 -18.422890 3.452926 -72.413454 66.224367 85.332183 -30.876970 50.661029 66.670392 0.000000 0.000000 0.000000 
-6.212933 88.974098 -55.887424 0.000000 0.000000 0.000000 21.734372 -33.203933 6.958851 -65.620482 -3.717081 4.919213 61.371995 -5.671155 0.802263 -7.037095 4.652569 -6.717474 1.753205 0.317887 -5.720866 0.000000 0.000000 0.000000 19.763492 -31.545707 5.586708 -31.030844 -17.510493 -13.330088 58.969504 15.467698 -6.601622 -25.301075 -24.737986 22.715172 5.251479 7.478917 -11.474508 0.000000 0.000000 0.000000 26.259214 -23.566069 2.727849 3.283300 0.992296 -0.999454 10.740204 1.455806 0.611251 0.123738 -0.303735 0.261214 0.000000 0.000000 0.000000 11.283006 4.912036 1.485816 -5.850543 32.047050 17.692592 -15.355701 -57.571166 -41.752291 0.000000 0.000000 0.000000 14.789485 0.485528 1.941600 -0.319844 -9.098082 -10.169103 -18.067298 3.045567 1.728150 -58.757822 -44.841107 -41.621834 101.523058 -78.614453 94.387859 0.000000 0.000000 0.000000 12.112395 1.846722 -0.230406 -18.627833 0.917926 -2.068755 -41.129644 -19.405898 3.760689 -70.795785 66.160860 83.761554 -32.433563 52.083601 68.493513 0.000000 0.000000 0.000000 
-6.086931 86.434097 -62.001736 0.000000 0.000000 0.000000 20.657752 -33.287528 6.368791 -68.908993 -7.888710 7.467180 60.874396 -7.116747 -0.889419 -4.046494 4.612124 -5.967631 0.673581 0.677392 -6.553467 0.000000 0.000000 0.000000 19.501172 -32.260230 5.390759 -24.386627 -15.759393 -14.406860 53.936911 13.409137 -5.760225 -22.256889 -32.023448 23.309402 4.903225 7.052184 -10.093004 0.000000 0.000000 0.000000 25.413560 -25.312510 2.713049 3.929186 1.436699 -1.544198 10.538074 1.541018 0.867384 0.146428 -0.225807 0.290629 0.000000 0.000000 0.000000 11.123420 5.013128 1.613050 -4.576484 32.844761 17.982976 -20.473948 -59.698299 -43.966747 0.000000 0.000000 0.000000 14.999314 0.431037 2.111549 -0.007992 -8.620152 -10.368633 -18.978526 3.305892 1.541382 -59.580034 -46.796795 -41.844939 94.025989 -78.931442 86.239683 0.000000 0.000000 0.000000 11.906335 1.797984 -0.253399 -18.505207 2.418708 -1.714470 -41.029011 -20.462888 3.964222 -68.451384 65.999271 81.387148 -34.105740 53.200688 70.601610 0.000000 0.000000 0.000000 
-5.564466 83.704170 -67.364868 0.000000 0.000000 0.000000 19.760190 -33.176189 6.151116 -74.054298 -11.935785 9.704640 61.780434 -9.325414 -1.289997 1.413068 3.331986 -8.645430 -2.108225 1.002331 -6.186743 0.000000 0.000000 0.000000 19.271852 -34.885587 6.087697 -17.981759 -14.106161 -16.481344 46.594594 12.552871 -5.727869 -16.042327 -38.239282 29.473082 2.656079 6.859277 -8.417745 0.000000 0.000000 0.000000 24.949505 -27.393795 3.654206 3.984810 1.903388 -2.490559 10.216469 1.783092 1.087544 0.183657 -0.352470 0.284456 0.000000 0.000000 0.000000 10.903617 5.292831 1.735901 -3.159922 33.874057 18.151071 -27.110908 -62.095968 -48.089559 0.000000 0.000000 0.000000 15.183859 0.541030 2.194958 0.274086 -8.095602 -10.778877 -19.946140 3.424403 1.612728 -59.670083 -48.593955 -42.055128 85.217846 -79.079404 77.082346 0.000000 0.000000 0.000000 11.789518 1.980743 -0.191097 -18.359562 3.739380 -1.087242 -40.907004 -21.344720 3.821089 -65.611583 65.675650 78.465384 -35.795085 54.025427 72.841912 0.000000 0.000000 0.000000 
-4.981634 81.424232 -72.559219 0.000000 0.000000 0.000000 19.282480 -33.583781 6.633954 -78.756712 -15.084001 11.374585 63.028842 -11.270315 -0.644831 7.162149 1.301071 -12.296266 -4.728728 1.088469 -4.920454 0.000000 0.000000 0.000000 19.360617 -38.706279 7.684062 -12.766136 -12.829715 -19.155829 38.930712 13.014230 -6.256192 -9.811923 -41.828645 38.195302 1.717644 6.746168 -6.998731 0.000000 0.000000 0.000000 24.811608 -29.760459 5.386574 3.585855 2.309540 -3.734444 9.795284 2.218800 1.215574 0.188175 -0.554722 0.248709 0.000000 0.000000 0.000000 10.556760 5.771023 1.777263 -1.846668 34.903219 18.212501 -35.411915 -64.683777 -54.438722 0.000000 0.000000 0.000000 15.321748 0.884443 2.194670 0.517087 -7.406856 -11.412584 -20.838192 3.229096 1.846223 -59.059894 -49.904736 -42.215268 79.986850 -79.082724 71.768534 0.000000 0.000000 0.000000 11.754416 2.431836 -0.081738 -18.256607 4.892037 -0.295559 -40.803215 -22.051843 3.454225 -62.551733 65.202639 75.466268 -37.721489 54.821123 75.322944 0.000000 0.000000 0.000000 
